<svg xmlns="http://www.w3.org/2000/svg" viewBox="0 0 512 512">
  <defs>
    <radialGradient id="bg" cx="50%" cy="38%" r="72%">
      <stop offset="0" stop-color="#1f7450"/>
      <stop offset="1" stop-color="#0b3d28"/>
    </radialGradient>
    <linearGradient id="gold" x1="0" y1="0" x2="1" y2="1">
      <stop offset="0" stop-color="#f0d36a"/>
      <stop offset="0.5" stop-color="#d0aa2b"/>
      <stop offset="1" stop-color="#9a7410"/>
    </linearGradient>
  </defs>
  <rect width="512" height="512" rx="112" fill="url(#bg)"/>
  <circle cx="256" cy="256" r="188" fill="none" stroke="url(#gold)" stroke-width="12" opacity=".96"/>
  <circle cx="256" cy="256" r="164" fill="#0f4d32" opacity=".28"/>
  <!-- Mihrab arch -->
  <path d="M150 337V226c0-74 48-126 106-153 58 27 106 79 106 153v111" fill="none" stroke="#e8c74e" stroke-width="13" stroke-linecap="round"/>
  <path d="M177 331V231c0-56 35-96 79-119 44 23 79 63 79 119v100" fill="none" stroke="#f7edc4" stroke-width="5" opacity=".75"/>
  <!-- eight-point star -->
  <path d="M256 129l9 18 20-4-10 18 14 14-20 3-3 20-14-14-18 10 4-20-18-9 18-9-4-20 18 10 14-14 3 20 20 3-14 14 10 18-20-4-9 18-9-18-20 4 10-18-14-14 20-3 3-20 14 14z" fill="#e8c74e" opacity=".92" transform="scale(.54) translate(218 106)"/>
  <!-- Quran stand -->
  <path d="M174 364l82 49 82-49-17 64-65 31-65-31z" fill="#b58b16" opacity=".95"/>
  <!-- Open Quran pages -->
  <path d="M112 305c47-22 92-17 144 17v89c-48-31-95-38-144-16z" fill="#fff8dc" stroke="#e8c74e" stroke-width="7" stroke-linejoin="round"/>
  <path d="M400 305c-47-22-92-17-144 17v89c48-31 95-38 144-16z" fill="#fff8dc" stroke="#e8c74e" stroke-width="7" stroke-linejoin="round"/>
  <path d="M256 322v88" stroke="#c69b1d" stroke-width="6" stroke-linecap="round"/>
  <path d="M137 329c33-8 61-3 91 12M137 350c33-8 61-3 91 12M137 371c33-8 61-3 91 12" fill="none" stroke="#c69b1d" stroke-width="5" stroke-linecap="round" opacity=".72"/>
  <path d="M375 329c-33-8-61-3-91 12M375 350c-33-8-61-3-91 12M375 371c-33-8-61-3-91 12" fill="none" stroke="#c69b1d" stroke-width="5" stroke-linecap="round" opacity=".72"/>
</svg>
