<svg xmlns="http://www.w3.org/2000/svg" viewBox="0 0 120 120">
 <defs>
  <linearGradient id="g" x1="0" y1="0" x2="1" y2="1"><stop stop-color="#0d7149"/><stop offset="1" stop-color="#064b33"/></linearGradient>
  <radialGradient id="p"><stop stop-color="#f7d7e2"/><stop offset="1" stop-color="#d78aa7"/></radialGradient>
 </defs>
 <path d="M4 116V4h112" fill="none" stroke="#0b6543" stroke-width="8"/>
 <path d="M14 106V14h92" fill="none" stroke="#c6a451" stroke-width="3"/>
 <path d="M26 94V26h68" fill="none" stroke="#2f8a61" stroke-width="2"/>
 <g transform="translate(23 23)">
  <circle r="19" cx="0" cy="0" fill="#f5efd9" stroke="#c6a451" stroke-width="3"/>
  <g fill="url(#p)" stroke="#0d7149" stroke-width="1.2">
   <ellipse rx="6" ry="14" transform="rotate(0) translate(0 -7)"/>
   <ellipse rx="6" ry="14" transform="rotate(45) translate(0 -7)"/>
   <ellipse rx="6" ry="14" transform="rotate(90) translate(0 -7)"/>
   <ellipse rx="6" ry="14" transform="rotate(135) translate(0 -7)"/>
  </g>
  <circle r="5.5" fill="url(#g)"/>
 </g>
 <path d="M28 53c12-8 21-8 33 0-7 6-10 13-11 24-9-7-15-14-22-24Zm25-25c8 12 8 21 0 33-6-7-13-10-24-11 7-9 14-15 24-22Z" fill="#7dae7e" opacity=".85"/>
</svg>
